<?xml version="1.0" standalone="no"?><!DOCTYPE svg PUBLIC "-//W3C//DTD SVG 1.1//EN" "http://www.w3.org/Graphics/SVG/1.1/DTD/svg11.dtd"><svg t="1578366166244" class="icon" viewBox="0 0 1024 1024" version="1.1" xmlns="http://www.w3.org/2000/svg" p-id="7639" xmlns:xlink="http://www.w3.org/1999/xlink" width="200" height="200"><defs><style type="text/css"></style></defs><path d="M557.568 807.68l211.2 77.44-9.216-248.32a64 64 0 0 1 13.632-41.856l153.408-195.456-216.384-61.44a128 128 0 0 1-71.296-51.84l-125.44-186.752-125.312 186.752a128 128 0 0 1-71.296 51.84l-216.32 61.44 138.88 177.024a128 128 0 0 1 27.2 83.776l-8.32 224.768 211.2-77.44a128 128 0 0 1 88.064 0zM280.32 945.152a64 64 0 0 1-85.952-62.464l8.32-224.832a64 64 0 0 0-13.568-41.856L50.176 439.04a64 64 0 0 1 32.832-101.12l216.32-61.44a64 64 0 0 0 35.712-25.92L460.416 63.744a64 64 0 0 1 106.24 0l125.44 186.816a64 64 0 0 0 35.584 25.856l216.384 61.568a64 64 0 0 1 32.832 101.056l-153.344 195.392 9.216 248.32a64 64 0 0 1-86.016 62.4l-211.2-77.44a64 64 0 0 0-44.032 0l-211.2 77.44z" fill="#5A5A5A" p-id="7640"></path></svg>