<?xml version="1.0" standalone="no"?><!DOCTYPE svg PUBLIC "-//W3C//DTD SVG 1.1//EN" "http://www.w3.org/Graphics/SVG/1.1/DTD/svg11.dtd"><svg t="1579512129119" class="icon" viewBox="0 0 1024 1024" version="1.1" xmlns="http://www.w3.org/2000/svg" p-id="1738" xmlns:xlink="http://www.w3.org/1999/xlink" width="200" height="200"><defs><style type="text/css"></style></defs><path d="M676.2 64H347.8c-41.1 0-74.7 33.6-74.7 74.7v746.7c0 41.1 33.6 74.7 74.7 74.7h328.5c41.1 0 74.7-33.6 74.7-74.7V138.7c-0.1-41.1-33.7-74.7-74.8-74.7m-209 59.7h89.6c8.2 0 14.9 6.7 14.9 14.9s-6.7 14.9-14.9 14.9h-89.6c-8.2 0-14.9-6.7-14.9-14.9s6.7-14.9 14.9-14.9M512 930.1c-24.8 0-44.8-20-44.8-44.8 0-24.8 20-44.8 44.8-44.8 24.8 0 44.8 20 44.8 44.8 0 24.8-20 44.8-44.8 44.8m209.1-119.4H303V213.3h418.1v597.4z" p-id="1739"></path></svg>