<?xml version="1.0" standalone="no"?><!DOCTYPE svg PUBLIC "-//W3C//DTD SVG 1.1//EN" "http://www.w3.org/Graphics/SVG/1.1/DTD/svg11.dtd"><svg t="1578672832056" class="icon" viewBox="0 0 1024 1024" version="1.1" xmlns="http://www.w3.org/2000/svg" p-id="1156" xmlns:xlink="http://www.w3.org/1999/xlink" width="200" height="200"><defs><style type="text/css"></style></defs><path d="M228.97664 141.85472A25.6 25.6 0 0 0 225.28 155.10528v713.79456a25.6 25.6 0 0 0 38.85056 21.90336l546.51392-330.60864c26.61376-16.1024 35.13856-50.72896 19.03616-77.34272a56.32 56.32 0 0 0-19.03616-19.03616L264.13056 133.20192a25.6 25.6 0 0 0-35.15392 8.6528zM174.08 868.89984V155.10528a76.8 76.8 0 0 1 11.08992-39.75168c21.95456-36.29056 69.1712-47.91296 105.46176-25.9584l546.51392 330.61376a107.52 107.52 0 0 1 36.34688 36.34176c30.73536 50.80576 14.464 116.9152-36.34688 147.65056l-546.5088 330.61376A76.8 76.8 0 0 1 250.88 945.69984c-42.41408 0-76.8-34.3808-76.8-76.8z" p-id="1157"></path></svg>