<?xml version="1.0" standalone="no"?><!DOCTYPE svg PUBLIC "-//W3C//DTD SVG 1.1//EN" "http://www.w3.org/Graphics/SVG/1.1/DTD/svg11.dtd"><svg t="1578366093628" class="icon" viewBox="0 0 1024 1024" version="1.1" xmlns="http://www.w3.org/2000/svg" p-id="3911" xmlns:xlink="http://www.w3.org/1999/xlink" width="200" height="200"><defs><style type="text/css"></style></defs><path d="M843.851852 948.148148h-663.703704c-62.577778 0-113.777778-51.2-113.777778-113.777778V379.259259c0-62.577778 51.2-113.777778 113.777778-113.777778h663.703704c62.577778 0 113.777778 51.2 113.777778 113.777778v455.111111c0 62.577778-51.2 113.777778-113.777778 113.777778z m-663.703704-644.740741c-41.718519 0-75.851852 34.133333-75.851852 75.851852v455.111111c0 41.718519 34.133333 75.851852 75.851852 75.851852h663.703704c41.718519 0 75.851852-34.133333 75.851852-75.851852V379.259259c0-41.718519-34.133333-75.851852-75.851852-75.851852h-663.703704z" fill="" p-id="3912"></path><path d="M538.548148 804.02963H221.866667c-20.859259 0-37.925926-17.066667-37.925926-37.925926V449.422222c0-20.859259 17.066667-37.925926 37.925926-37.925926h318.577777c20.859259 0 37.925926 17.066667 37.925926 37.925926v318.577778c-1.896296 18.962963-18.962963 36.02963-39.822222 36.02963z m0-37.925926v18.962963-18.962963zM221.866667 449.422222v318.577778h318.577777V449.422222H221.866667zM741.451852 570.785185c-37.925926 0-70.162963-30.340741-70.162963-70.162963s30.340741-70.162963 70.162963-70.162963 70.162963 30.340741 70.162963 70.162963-32.237037 70.162963-70.162963 70.162963z m0-102.4c-17.066667 0-32.237037 15.17037-32.237037 32.237037 0 17.066667 15.17037 32.237037 32.237037 32.237037s32.237037-15.17037 32.237037-32.237037c-1.896296-17.066667-15.17037-32.237037-32.237037-32.237037zM821.096296 713.007407h-161.185185c-11.377778 0-18.962963-7.585185-18.962963-18.962963s7.585185-18.962963 18.962963-18.962963h161.185185c11.377778 0 18.962963 7.585185 18.962963 18.962963s-7.585185 18.962963-18.962963 18.962963zM821.096296 785.066667h-161.185185c-11.377778 0-18.962963-7.585185-18.962963-18.962963s7.585185-18.962963 18.962963-18.962963h161.185185c11.377778 0 18.962963 7.585185 18.962963 18.962963s-7.585185 18.962963-18.962963 18.962963z" fill="" p-id="3913"></path><path d="M508.207407 301.511111c-3.792593 0-7.585185 0-9.481481-1.896296L235.140741 136.533333c-9.481481-5.688889-11.377778-17.066667-5.688889-26.548148 5.688889-9.481481 17.066667-11.377778 26.548148-5.688889l252.207407 157.392593 259.792593-155.496296c9.481481-5.688889 20.859259-1.896296 26.548148 7.585185 5.688889 7.585185 1.896296 18.962963-5.688889 24.651852l-271.17037 161.185185c-1.896296 1.896296-5.688889 1.896296-9.481482 1.896296z" fill="" p-id="3914"></path></svg>