<?xml version="1.0" standalone="no"?><!DOCTYPE svg PUBLIC "-//W3C//DTD SVG 1.1//EN" "http://www.w3.org/Graphics/SVG/1.1/DTD/svg11.dtd"><svg t="1583154495392" class="icon" viewBox="0 0 1024 1024" version="1.1" xmlns="http://www.w3.org/2000/svg" p-id="1225" xmlns:xlink="http://www.w3.org/1999/xlink" width="200" height="200"><defs><style type="text/css"></style></defs><path d="M499.77 39.58a27.78 27.78 0 0 0-29.08 2.63l-291 218.21H39.78A27.76 27.76 0 0 0 12 288.2v447.59a27.76 27.76 0 0 0 27.78 27.78h139.94l291 218.21a27.58 27.58 0 0 0 16.66 5.56 27.77 27.77 0 0 0 27.78-27.78V64.43a27.79 27.79 0 0 0-15.39-24.85zM459.56 904L205.63 713.58A27.7 27.7 0 0 0 189 708H67.56V316H189a27.7 27.7 0 0 0 16.66-5.56L459.56 120zM825.64 117.57a27.79 27.79 0 1 0-35.32 42.91 454.95 454.95 0 0 1 0 703 27.79 27.79 0 0 0 35.32 42.91C944.07 809 1012 665.21 1012 512s-67.93-297-186.36-394.43z" p-id="1226"></path><path d="M729.26 247.1A27.78 27.78 0 0 0 693 289.21a293.41 293.41 0 0 1 0 445.58 27.78 27.78 0 1 0 36.24 42.1 348.95 348.95 0 0 0 0-529.79z" p-id="1227"></path></svg>