<?xml version="1.0" standalone="no"?><!DOCTYPE svg PUBLIC "-//W3C//DTD SVG 1.1//EN" "http://www.w3.org/Graphics/SVG/1.1/DTD/svg11.dtd"><svg t="1578366173673" class="icon" viewBox="0 0 1070 1024" version="1.1" xmlns="http://www.w3.org/2000/svg" p-id="8410" xmlns:xlink="http://www.w3.org/1999/xlink" width="208.984375" height="200"><defs><style type="text/css"></style></defs><path d="M536.70909131 158.21818174l-45-29.04545479A273.23181826 273.23181826 0 0 0 70.18181826 358.59090869c0 162.9 133.07727305 344.94545479 395.79545479 549.94090957a114.54545479 114.54545479 0 0 0 140.93181826 0c262.63636347-204.99545479 395.75454521-387.04090869 395.75454522-549.94090957a272.53636348 272.53636348 0 0 0-417.23181827-230.93181738l-48.72272695 30.55909043z m29.90454521 698.72727305a49.09090869 49.09090869 0 0 1-60.38181826 0C257.95454521 663.15909131 135.63636347 495.8 135.63636347 358.59090869a207.77727305 207.77727305 0 0 1 320.56363653-174.47727217l62.46818174 40.37727217 17.46818173 11.29090957 84.06818174-52.65a207.08181826 207.08181826 0 0 1 317.04545479 175.45909043c0 137.25-122.4 304.60909131-370.63636348 498.31363652z" p-id="8411"></path></svg>